<svg width="227" height="43" viewBox="0 0 227 43" fill="none" xmlns="http://www.w3.org/2000/svg">
<g filter="url(#filter0_d)">
<path d="M30.972 10.186C30.972 8.842 30.72 7.582 30.216 6.406C29.712 5.188 28.998 4.18 28.116 3.298C27.234 2.374 26.184 1.702 24.966 1.156C23.748 0.651999 22.488 0.399999 21.186 0.399999H3L8.586 6.028H21.186C21.732 6.028 22.278 6.112 22.782 6.322C23.328 6.532 23.79 6.826 24.168 7.246C24.546 7.624 24.84 8.086 25.05 8.59C25.26 9.094 25.386 9.64 25.386 10.186C25.386 10.774 25.26 11.32 25.05 11.824C24.84 12.328 24.546 12.79 24.168 13.168C23.79 13.588 23.328 13.882 22.782 14.092C22.278 14.344 21.732 14.428 21.186 14.428H8.586H6.36H3V20.014H8.586H21.186C21.774 20.014 22.32 20.14 22.866 20.35C23.37 20.56 23.79 20.896 24.168 21.274C24.546 21.652 24.84 22.114 25.05 22.618C25.26 23.122 25.386 23.668 25.386 24.214C25.386 24.76 25.26 25.306 25.05 25.81C24.84 26.314 24.546 26.776 24.168 27.154C23.79 27.574 23.328 27.868 22.782 28.078C22.278 28.288 21.732 28.372 21.186 28.372H8.586V34H21.186C22.53 34 23.79 33.748 24.966 33.244C26.184 32.698 27.234 32.026 28.116 31.102C28.998 30.22 29.712 29.212 30.216 27.994C30.72 26.818 30.972 25.558 30.972 24.214C30.972 21.442 30.006 19.09 28.032 17.2C30.006 15.268 30.972 12.916 30.972 10.186ZM42.5469 28.372L36.9609 34H59.3469V28.372H42.5469ZM36.9609 0.399999V1.324V26.398L42.5469 20.77V1.324V0.399999H36.9609ZM73.4484 0.399999C68.7864 0.399999 64.8384 2.08 61.6044 5.356C58.3284 8.632 56.6484 12.58 56.6484 17.2C56.6484 21.862 58.3284 25.768 61.6044 29.044C64.8804 32.32 68.7864 34 73.4484 34C78.1104 34 82.0164 32.32 85.2924 29.044C88.6104 25.81 90.2904 21.862 90.2904 17.2C90.2904 12.58 88.6104 8.632 85.2924 5.356C82.0164 2.08 78.1104 0.399999 73.4484 0.399999ZM73.4484 6.028C76.5144 6.028 79.1604 7.12 81.3444 9.304C83.5284 11.488 84.6204 14.134 84.6204 17.2C84.6204 20.266 83.5704 22.912 81.3444 25.138C79.1604 27.322 76.5144 28.372 73.4484 28.372C70.3824 28.372 67.6944 27.322 65.5104 25.138C63.3264 22.954 62.2764 20.266 62.2764 17.2C62.2764 14.134 63.3264 11.488 65.5104 9.304C67.7364 7.078 70.3824 6.028 73.4484 6.028ZM118.634 27.406C117.206 28.036 115.652 28.372 113.972 28.372C110.906 28.372 108.218 27.322 106.034 25.138C103.85 22.954 102.8 20.266 102.8 17.2C102.8 14.134 103.85 11.488 106.034 9.304C108.26 7.078 110.906 6.028 113.972 6.028C117.08 6.028 119.684 7.12 121.868 9.304L125.9 5.356C124.346 3.802 122.54 2.584 120.524 1.702C118.466 0.819999 116.282 0.399999 113.972 0.399999C109.31 0.399999 105.362 2.038 102.128 5.356C98.8099 8.632 97.1719 12.58 97.1719 17.2C97.1719 21.862 98.8519 25.768 102.128 29.044C105.404 32.32 109.31 34 113.972 34C115.442 34 116.828 33.832 118.172 33.454C119.558 33.118 120.818 32.614 121.994 31.942C123.212 31.27 124.304 30.472 125.312 29.548C126.362 28.624 127.244 27.574 128 26.44L122.414 24.592C121.322 25.81 120.062 26.734 118.634 27.406ZM113.972 20.014H122.414L128 14.428H113.972V20.014Z" fill="white"/>
<path d="M136.946 31.732C136.946 30.696 137.198 29.968 137.702 29.548C138.206 29.128 138.808 28.918 139.508 28.918C140.236 28.918 140.852 29.128 141.356 29.548C141.888 29.968 142.154 30.696 142.154 31.732C142.154 32.74 141.888 33.468 141.356 33.916C140.852 34.364 140.236 34.588 139.508 34.588C138.808 34.588 138.206 34.364 137.702 33.916C137.198 33.468 136.946 32.74 136.946 31.732ZM166.622 27.406C165.194 28.036 163.64 28.372 161.96 28.372C158.894 28.372 156.206 27.322 154.022 25.138C151.838 22.954 150.788 20.266 150.788 17.2C150.788 14.134 151.838 11.488 154.022 9.304C156.248 7.078 158.894 6.028 161.96 6.028C165.068 6.028 167.672 7.12 169.856 9.304L173.888 5.356C172.334 3.802 170.528 2.584 168.512 1.702C166.454 0.819999 164.27 0.399999 161.96 0.399999C157.298 0.399999 153.35 2.038 150.116 5.356C146.798 8.632 145.16 12.58 145.16 17.2C145.16 21.862 146.84 25.768 150.116 29.044C153.392 32.32 157.298 34 161.96 34C163.43 34 164.816 33.832 166.16 33.454C167.546 33.118 168.806 32.614 169.982 31.942C171.2 31.27 172.292 30.472 173.3 29.548C174.35 28.624 175.232 27.574 175.988 26.44L170.402 24.592C169.31 25.81 168.05 26.734 166.622 27.406ZM161.96 20.014H170.402L175.988 14.428H161.96V20.014ZM176.209 33.538V34H198.595V28.372H181.795L176.209 33.538ZM176.209 0.399999L181.795 6.028H198.595V0.399999H176.209ZM176.209 14.428V20.014H181.795H198.595V14.428H181.795H176.209ZM221.969 17.914C223.313 16.024 223.943 13.924 223.943 11.572C223.943 8.506 222.851 5.902 220.667 3.676C218.483 1.492 215.837 0.399999 212.771 0.399999H198.029L200.927 5.398L201.557 6.028H212.771C214.283 6.028 215.585 6.574 216.677 7.666C217.811 8.758 218.357 10.06 218.357 11.572C218.357 13.126 217.811 14.47 216.677 15.562C215.585 16.654 214.283 17.2 212.771 17.2L207.773 17.158L217.517 34H223.943L217.055 21.946C219.029 21.148 220.667 19.804 221.969 17.914Z" fill="#FF594F"/>
</g>
<defs>
<filter id="filter0_d" x="0" y="0.400024" width="226.943" height="42.188" filterUnits="userSpaceOnUse" color-interpolation-filters="sRGB">
<feFlood flood-opacity="0" result="BackgroundImageFix"/>
<feColorMatrix in="SourceAlpha" type="matrix" values="0 0 0 0 0 0 0 0 0 0 0 0 0 0 0 0 0 0 127 0" result="hardAlpha"/>
<feOffset dy="5"/>
<feGaussianBlur stdDeviation="1.5"/>
<feComposite in2="hardAlpha" operator="out"/>
<feColorMatrix type="matrix" values="0 0 0 0 0 0 0 0 0 0.22 0 0 0 0 1 0 0 0 0.3 0"/>
<feBlend mode="normal" in2="BackgroundImageFix" result="effect1_dropShadow"/>
<feBlend mode="normal" in="SourceGraphic" in2="effect1_dropShadow" result="shape"/>
</filter>
</defs>
</svg>
