<svg width="135" height="26" viewBox="0 0 135 26" fill="none" xmlns="http://www.w3.org/2000/svg">
<g filter="url(#filter0_d)">
<path d="M18.5121 5.94239C18.5121 5.14902 18.3633 4.40523 18.0658 3.71103C17.7683 2.99203 17.3468 2.397 16.8262 1.87635C16.3055 1.33091 15.6857 0.934217 14.9667 0.611909C14.2477 0.314394 13.5039 0.165637 12.7353 0.165637H2L5.29746 3.48789H12.7353C13.0577 3.48789 13.38 3.53748 13.6775 3.66144C13.9998 3.78541 14.2725 3.95896 14.4956 4.20689C14.7188 4.43002 14.8923 4.70275 15.0163 5.00026C15.1403 5.29778 15.2146 5.62009 15.2146 5.94239C15.2146 6.2895 15.1403 6.6118 15.0163 6.90932C14.8923 7.20684 14.7188 7.47956 14.4956 7.70269C14.2725 7.95062 13.9998 8.12417 13.6775 8.24814C13.38 8.3969 13.0577 8.44648 12.7353 8.44648H5.29746H3.98344H2V11.7439H5.29746H12.7353C13.0825 11.7439 13.4048 11.8183 13.7271 11.9423C14.0246 12.0663 14.2725 12.2646 14.4956 12.4877C14.7188 12.7109 14.8923 12.9836 15.0163 13.2811C15.1403 13.5786 15.2146 13.9009 15.2146 14.2232C15.2146 14.5455 15.1403 14.8679 15.0163 15.1654C14.8923 15.4629 14.7188 15.7356 14.4956 15.9587C14.2725 16.2067 13.9998 16.3802 13.6775 16.5042C13.38 16.6282 13.0577 16.6777 12.7353 16.6777H5.29746V20H12.7353C13.5287 20 14.2725 19.8512 14.9667 19.5537C15.6857 19.2314 16.3055 18.8347 16.8262 18.2893C17.3468 17.7686 17.7683 17.1736 18.0658 16.4546C18.3633 15.7604 18.5121 15.0166 18.5121 14.2232C18.5121 12.5869 17.9419 11.1985 16.7766 10.0828C17.9419 8.94234 18.5121 7.55394 18.5121 5.94239ZM25.3449 16.6777L22.0474 20H35.2621V16.6777H25.3449ZM22.0474 0.165637V0.711081V15.5125L25.3449 12.1902V0.711081V0.165637H22.0474ZM43.5863 0.165637C40.8343 0.165637 38.5038 1.15735 36.5947 3.0912C34.6608 5.02506 33.6691 7.35559 33.6691 10.0828C33.6691 12.8348 34.6608 15.1406 36.5947 17.0744C38.5285 19.0083 40.8343 20 43.5863 20C46.3383 20 48.6441 19.0083 50.5779 17.0744C52.5366 15.1654 53.5283 12.8348 53.5283 10.0828C53.5283 7.35559 52.5366 5.02506 50.5779 3.0912C48.6441 1.15735 46.3383 0.165637 43.5863 0.165637ZM43.5863 3.48789C45.3962 3.48789 46.9581 4.13251 48.2474 5.42174C49.5366 6.71098 50.1812 8.27293 50.1812 10.0828C50.1812 11.8927 49.5614 13.4547 48.2474 14.7687C46.9581 16.0579 45.3962 16.6777 43.5863 16.6777C41.7764 16.6777 40.1897 16.0579 38.9004 14.7687C37.6112 13.4795 36.9914 11.8927 36.9914 10.0828C36.9914 8.27293 37.6112 6.71098 38.9004 5.42174C40.2145 4.10772 41.7764 3.48789 43.5863 3.48789ZM70.2597 16.1075C69.4167 16.4794 68.4994 16.6777 67.5076 16.6777C65.6977 16.6777 64.111 16.0579 62.8218 14.7687C61.5325 13.4795 60.9127 11.8927 60.9127 10.0828C60.9127 8.27293 61.5325 6.71098 62.8218 5.42174C64.1358 4.10772 65.6977 3.48789 67.5076 3.48789C69.3423 3.48789 70.8795 4.13251 72.1687 5.42174L74.5488 3.0912C73.6315 2.17387 72.5654 1.45487 71.3753 0.934217C70.1605 0.413566 68.8712 0.165637 67.5076 0.165637C64.7556 0.165637 62.4251 1.13256 60.516 3.0912C58.5574 5.02506 57.5905 7.35559 57.5905 10.0828C57.5905 12.8348 58.5822 15.1406 60.516 17.0744C62.4499 19.0083 64.7556 20 67.5076 20C68.3754 20 69.1936 19.9008 69.9869 19.6777C70.8051 19.4793 71.5489 19.1818 72.2431 18.7851C72.9621 18.3885 73.6067 17.9174 74.2017 17.3719C74.8216 16.8265 75.3422 16.2067 75.7885 15.5373L72.491 14.4464C71.8464 15.1654 71.1026 15.7108 70.2597 16.1075ZM67.5076 11.7439H72.491L75.7885 8.44648H67.5076V11.7439Z" fill="#1081E8"/>
<path d="M81.0694 18.6612C81.0694 18.0496 81.2181 17.6199 81.5157 17.3719C81.8132 17.124 82.1685 17.0001 82.5817 17.0001C83.0115 17.0001 83.3751 17.124 83.6726 17.3719C83.9867 17.6199 84.1437 18.0496 84.1437 18.6612C84.1437 19.2562 83.9867 19.686 83.6726 19.9504C83.3751 20.2149 83.0115 20.3471 82.5817 20.3471C82.1685 20.3471 81.8132 20.2149 81.5157 19.9504C81.2181 19.686 81.0694 19.2562 81.0694 18.6612ZM98.5875 16.1075C97.7446 16.4794 96.8272 16.6777 95.8355 16.6777C94.0256 16.6777 92.4389 16.0579 91.1496 14.7687C89.8604 13.4795 89.2406 11.8927 89.2406 10.0828C89.2406 8.27293 89.8604 6.71098 91.1496 5.42174C92.4637 4.10772 94.0256 3.48789 95.8355 3.48789C97.6702 3.48789 99.2074 4.13251 100.497 5.42174L102.877 3.0912C101.959 2.17387 100.893 1.45487 99.7032 0.934217C98.4884 0.413566 97.1991 0.165637 95.8355 0.165637C93.0835 0.165637 90.753 1.13256 88.8439 3.0912C86.8853 5.02506 85.9183 7.35559 85.9183 10.0828C85.9183 12.8348 86.9101 15.1406 88.8439 17.0744C90.7778 19.0083 93.0835 20 95.8355 20C96.7033 20 97.5214 19.9008 98.3148 19.6777C99.133 19.4793 99.8768 19.1818 100.571 18.7851C101.29 18.3885 101.935 17.9174 102.53 17.3719C103.149 16.8265 103.67 16.2067 104.116 15.5373L100.819 14.4464C100.174 15.1654 99.4305 15.7108 98.5875 16.1075ZM95.8355 11.7439H100.819L104.116 8.44648H95.8355V11.7439ZM104.247 19.7273V20H117.461V16.6777H107.544L104.247 19.7273ZM104.247 0.165637L107.544 3.48789H117.461V0.165637H104.247ZM104.247 8.44648V11.7439H107.544H117.461V8.44648H107.544H104.247ZM131.259 10.5043C132.053 9.38862 132.425 8.14897 132.425 6.76056C132.425 4.95068 131.78 3.41351 130.491 2.09949C129.202 0.810253 127.64 0.165637 125.83 0.165637H117.127L118.838 3.116L119.21 3.48789H125.83C126.722 3.48789 127.491 3.8102 128.136 4.45482C128.805 5.09943 129.127 5.86802 129.127 6.76056C129.127 7.6779 128.805 8.47128 128.136 9.11589C127.491 9.76051 126.722 10.0828 125.83 10.0828L122.879 10.058L128.631 20H132.425L128.359 12.8844C129.524 12.4134 130.491 11.62 131.259 10.5043Z" fill="#FF594F"/>
</g>
<defs>
<filter id="filter0_d" x="0.229075" y="0.165636" width="133.967" height="24.9039" filterUnits="userSpaceOnUse" color-interpolation-filters="sRGB">
<feFlood flood-opacity="0" result="BackgroundImageFix"/>
<feColorMatrix in="SourceAlpha" type="matrix" values="0 0 0 0 0 0 0 0 0 0 0 0 0 0 0 0 0 0 127 0" result="hardAlpha"/>
<feOffset dy="2.95154"/>
<feGaussianBlur stdDeviation="0.885463"/>
<feComposite in2="hardAlpha" operator="out"/>
<feColorMatrix type="matrix" values="0 0 0 0 0 0 0 0 0 0.22 0 0 0 0 1 0 0 0 0.3 0"/>
<feBlend mode="normal" in2="BackgroundImageFix" result="effect1_dropShadow"/>
<feBlend mode="normal" in="SourceGraphic" in2="effect1_dropShadow" result="shape"/>
</filter>
</defs>
</svg>
